<svg width="24" height="24" viewBox="0 0 24 24" fill="none" xmlns="http://www.w3.org/2000/svg">
<path d="M20.6476 2.67383L13.1523 8.24068L14.5384 4.95631L20.6476 2.67383Z" fill="#E2761B" stroke="#E2761B" stroke-width="0.0754717" stroke-linecap="round" stroke-linejoin="round"/>
<path d="M3.3457 2.67383L10.7807 8.29341L9.46246 4.95631L3.3457 2.67383Z" fill="#E4761B" stroke="#E4761B" stroke-width="0.0754717" stroke-linecap="round" stroke-linejoin="round"/>
<path d="M17.9513 15.5781L15.9551 18.6365L20.2263 19.8116L21.4541 15.6459L17.9513 15.5781Z" fill="#E4761B" stroke="#E4761B" stroke-width="0.0754717" stroke-linecap="round" stroke-linejoin="round"/>
<path d="M2.55469 15.6459L3.77503 19.8116L8.04621 18.6365L6.04998 15.5781L2.55469 15.6459Z" fill="#E4761B" stroke="#E4761B" stroke-width="0.0754717" stroke-linecap="round" stroke-linejoin="round"/>
<path d="M7.80544 10.4105L6.61523 12.2109L10.8563 12.3992L10.7056 7.8418L7.80544 10.4105Z" fill="#E4761B" stroke="#E4761B" stroke-width="0.0754717" stroke-linecap="round" stroke-linejoin="round"/>
<path d="M16.1901 10.4105L13.2522 7.78906L13.1543 12.3992L17.3878 12.2109L16.1901 10.4105Z" fill="#E4761B" stroke="#E4761B" stroke-width="0.0754717" stroke-linecap="round" stroke-linejoin="round"/>
<path d="M8.04688 18.6362L10.593 17.3933L8.39339 15.6758L8.04688 18.6362Z" fill="#E4761B" stroke="#E4761B" stroke-width="0.0754717" stroke-linecap="round" stroke-linejoin="round"/>
<path d="M13.4023 17.3933L15.956 18.6362L15.602 15.6758L13.4023 17.3933Z" fill="#E4761B" stroke="#E4761B" stroke-width="0.0754717" stroke-linecap="round" stroke-linejoin="round"/>
<path d="M15.9541 18.6375L13.4004 17.3945L13.6038 19.0593L13.5812 19.7599L15.9541 18.6375Z" fill="#D7C1B3" stroke="#D7C1B3" stroke-width="0.0754717" stroke-linecap="round" stroke-linejoin="round"/>
<path d="M8.04492 18.6375L10.4178 19.7599L10.4027 19.0593L10.5911 17.3945L8.04492 18.6375Z" fill="#D7C1B3" stroke="#D7C1B3" stroke-width="0.0754717" stroke-linecap="round" stroke-linejoin="round"/>
<path d="M10.4563 14.5764L8.33203 13.9511L9.83109 13.2656L10.4563 14.5764Z" fill="#233447" stroke="#233447" stroke-width="0.0754717" stroke-linecap="round" stroke-linejoin="round"/>
<path d="M13.5371 14.5764L14.1623 13.2656L15.6689 13.9511L13.5371 14.5764Z" fill="#233447" stroke="#233447" stroke-width="0.0754717" stroke-linecap="round" stroke-linejoin="round"/>
<path d="M8.04506 18.6365L8.40664 15.5781L6.04883 15.6459L8.04506 18.6365Z" fill="#CD6116" stroke="#CD6116" stroke-width="0.0754717" stroke-linecap="round" stroke-linejoin="round"/>
<path d="M15.5938 15.5781L15.9553 18.6365L17.9516 15.6459L15.5938 15.5781Z" fill="#CD6116" stroke="#CD6116" stroke-width="0.0754717" stroke-linecap="round" stroke-linejoin="round"/>
<path d="M17.3859 12.2109L13.1523 12.3993L13.5441 14.5763L14.1693 13.2656L15.6759 13.951L17.3859 12.2109Z" fill="#CD6116" stroke="#CD6116" stroke-width="0.0754717" stroke-linecap="round" stroke-linejoin="round"/>
<path d="M8.3308 13.951L9.83739 13.2656L10.4551 14.5763L10.8543 12.3993L6.61328 12.2109L8.3308 13.951Z" fill="#CD6116" stroke="#CD6116" stroke-width="0.0754717" stroke-linecap="round" stroke-linejoin="round"/>
<path d="M6.61328 12.2109L8.39106 15.6761L8.33079 13.951L6.61328 12.2109Z" fill="#E4751F" stroke="#E4751F" stroke-width="0.0754717" stroke-linecap="round" stroke-linejoin="round"/>
<path d="M15.6749 13.951L15.5996 15.6761L17.3849 12.2109L15.6749 13.951Z" fill="#E4751F" stroke="#E4751F" stroke-width="0.0754717" stroke-linecap="round" stroke-linejoin="round"/>
<path d="M10.8543 12.3984L10.4551 14.5755L10.9523 17.1442L11.0652 13.7619L10.8543 12.3984Z" fill="#E4751F" stroke="#E4751F" stroke-width="0.0754717" stroke-linecap="round" stroke-linejoin="round"/>
<path d="M13.1526 12.3984L12.9492 13.7544L13.0396 17.1442L13.5443 14.5755L13.1526 12.3984Z" fill="#E4751F" stroke="#E4751F" stroke-width="0.0754717" stroke-linecap="round" stroke-linejoin="round"/>
<path d="M13.5438 14.5764L13.0391 17.1451L13.4006 17.3937L15.6003 15.6762L15.6756 13.9512L13.5438 14.5764Z" fill="#F6851B" stroke="#F6851B" stroke-width="0.0754717" stroke-linecap="round" stroke-linejoin="round"/>
<path d="M8.33203 13.9512L8.3923 15.6762L10.5919 17.3937L10.9535 17.1451L10.4563 14.5764L8.33203 13.9512Z" fill="#F6851B" stroke="#F6851B" stroke-width="0.0754717" stroke-linecap="round" stroke-linejoin="round"/>
<path d="M13.5816 19.7591L13.6042 19.0586L13.4159 18.8928H10.576L10.4027 19.0586L10.4178 19.7591L8.04492 18.6367L8.87355 19.3147L10.5534 20.4823H13.4385L15.1259 19.3147L15.9545 18.6367L13.5816 19.7591Z" fill="#C0AD9E" stroke="#C0AD9E" stroke-width="0.0754717" stroke-linecap="round" stroke-linejoin="round"/>
<path d="M13.4005 17.3931L13.0389 17.1445H10.9522L10.5907 17.3931L10.4023 19.0579L10.5756 18.8922H13.4155L13.6038 19.0579L13.4005 17.3931Z" fill="#161616" stroke="#161616" stroke-width="0.0754717" stroke-linecap="round" stroke-linejoin="round"/>
<path d="M20.9635 8.60227L21.6038 5.52882L20.6471 2.67383L13.4004 8.05236L16.1876 10.4102L20.1273 11.5627L21.0011 10.5458L20.6245 10.2746L21.2271 9.72468L20.7601 9.36309L21.3627 8.90358L20.9635 8.60227Z" fill="#763D16" stroke="#763D16" stroke-width="0.0754717" stroke-linecap="round" stroke-linejoin="round"/>
<path d="M2.39453 5.52882L3.03483 8.60227L2.62805 8.90358L3.23069 9.36309L2.77118 9.72468L3.37382 10.2746L2.99717 10.5458L3.86346 11.5627L7.80319 10.4102L10.5904 8.05236L3.34368 2.67383L2.39453 5.52882Z" fill="#763D16" stroke="#763D16" stroke-width="0.0754717" stroke-linecap="round" stroke-linejoin="round"/>
<path d="M20.1289 11.5627L16.1891 10.4102L17.3869 12.2105L15.6016 15.6757L17.9518 15.6456H21.4547L20.1289 11.5627Z" fill="#F6851B" stroke="#F6851B" stroke-width="0.0754717" stroke-linecap="round" stroke-linejoin="round"/>
<path d="M7.80321 10.4102L3.86347 11.5627L2.55273 15.6456H6.04803L8.39078 15.6757L6.613 12.2105L7.80321 10.4102Z" fill="#F6851B" stroke="#F6851B" stroke-width="0.0754717" stroke-linecap="round" stroke-linejoin="round"/>
<path d="M13.1521 12.3996L13.4007 8.05308L14.5457 4.95703H9.46094L10.5909 8.05308L10.8545 12.3996L10.9449 13.7706L10.9525 17.1454H13.0391L13.0542 13.7706L13.1521 12.3996Z" fill="#F6851B" stroke="#F6851B" stroke-width="0.0754717" stroke-linecap="round" stroke-linejoin="round"/>
</svg>
